<svg width="32" height="32" viewBox="0 0 32 32" fill="none" xmlns="http://www.w3.org/2000/svg">
<mask id="mask0_48_434" style="mask-type:alpha" maskUnits="userSpaceOnUse" x="0" y="0" width="32" height="32">
<rect width="32" height="32" fill="#D9D9D9"/>
</mask>
<g mask="url(#mask0_48_434)">
<path fill-rule="evenodd" clip-rule="evenodd" d="M5.3665 26.6333C5.83317 27.1 6.40328 27.3333 7.07684 27.3333H13.9999V25.3333H7.07684C6.97417 25.3333 6.88017 25.2905 6.79484 25.205C6.70928 25.1196 6.6665 25.0256 6.6665 24.923V9.66663H25.3332V15H27.3332V7.07696C27.3332 6.4034 27.0998 5.83329 26.6332 5.36663C26.1665 4.89996 25.5964 4.66663 24.9228 4.66663H7.07684C6.40328 4.66663 5.83317 4.89996 5.3665 5.36663C4.89984 5.83329 4.6665 6.4034 4.6665 7.07696V24.923C4.6665 25.5965 4.89984 26.1666 5.3665 26.6333ZM25.3332 8.66663H6.6665V7.07696C6.6665 6.97429 6.70928 6.88029 6.79484 6.79496C6.88017 6.7094 6.97417 6.66663 7.07684 6.66663H24.9228C25.0255 6.66663 25.1195 6.7094 25.2048 6.79496C25.2904 6.88029 25.3332 6.97429 25.3332 7.07696V8.66663Z" fill="#323332"/>
<path d="M22.1333 26.1L24 28L29.3333 22.6667L24 17.3334L22.1333 19.2L24.2333 21.3334H16V24H24.2333L22.1333 26.1Z" fill="#1C1B1F"/>
<rect x="8" y="8" width="3" height="3" fill="#323332"/>
</g>
</svg>
