<svg width="32" height="32" viewBox="0 0 32 32" fill="none" xmlns="http://www.w3.org/2000/svg">
<mask id="mask0_48_452" style="mask-type:alpha" maskUnits="userSpaceOnUse" x="0" y="0" width="32" height="32">
<rect width="32" height="32" fill="#D9D9D9"/>
</mask>
<g mask="url(#mask0_48_452)">
<path d="M26.2334 27.141L27.0641 26.3103L24.5897 23.836V20.154H23.4104V24.318L26.2334 27.141ZM7.07708 27.3333C6.41219 27.3333 5.84419 27.0978 5.37308 26.627C4.90219 26.1558 4.66675 25.5878 4.66675 24.923V7.07696C4.66675 6.41207 4.90219 5.84407 5.37308 5.37296C5.84419 4.90207 6.41219 4.66663 7.07708 4.66663H24.9231C25.588 4.66663 26.156 4.90207 26.6271 5.37296C27.098 5.84407 27.3334 6.41207 27.3334 7.07696V15.5103C27.0052 15.3701 26.6765 15.2513 26.3474 15.154C26.0183 15.0564 25.6803 14.9786 25.3334 14.9206V7.07696C25.3334 6.97429 25.2906 6.88029 25.2051 6.79496C25.1197 6.7094 25.0257 6.66663 24.9231 6.66663H7.07708C6.97441 6.66663 6.88042 6.7094 6.79508 6.79496C6.70953 6.88029 6.66675 6.97429 6.66675 7.07696V24.923C6.66675 25.0256 6.70953 25.1196 6.79508 25.205C6.88042 25.2905 6.97441 25.3333 7.07708 25.3333H14.8874C14.937 25.7024 15.0104 26.0515 15.1077 26.3806C15.2053 26.7097 15.3241 27.0273 15.4641 27.3333H7.07708ZM6.66675 25.3333V6.66663V14.9206V14.8206V25.3333ZM9.66675 22.1793H15.0231C15.0813 21.8324 15.1676 21.4944 15.2821 21.1653C15.3967 20.8362 15.5215 20.5076 15.6564 20.1796H9.66675V22.1793ZM9.66675 17H18.1207C18.695 16.5128 19.3077 16.1047 19.9591 15.7756C20.6104 15.4465 21.3079 15.2127 22.0514 15.0743V15H9.66675V17ZM9.66675 11.8203H22.3334V9.82063H9.66675V11.8203ZM24.0001 30.077C22.3352 30.077 20.919 29.4932 19.7514 28.3256C18.5839 27.1581 18.0001 25.7418 18.0001 24.077C18.0001 22.4121 18.5839 20.9958 19.7514 19.8283C20.919 18.6607 22.3352 18.077 24.0001 18.077C25.665 18.077 27.0812 18.6607 28.2487 19.8283C29.4163 20.9958 30.0001 22.4121 30.0001 24.077C30.0001 25.7418 29.4163 27.1581 28.2487 28.3256C27.0812 29.4932 25.665 30.077 24.0001 30.077Z" fill="#1C1B1F"/>
</g>
</svg>
