<svg width="32" height="32" viewBox="0 0 32 32" fill="none" xmlns="http://www.w3.org/2000/svg">
<mask id="mask0_48_445" style="mask-type:alpha" maskUnits="userSpaceOnUse" x="0" y="0" width="32" height="32">
<rect width="32" height="32" fill="#D9D9D9"/>
</mask>
<g mask="url(#mask0_48_445)">
<path d="M14.6 23.2437L21.6717 16.1717L20.2257 14.7257L14.5793 20.3717L11.754 17.5464L10.3283 18.9717L14.6 23.2437ZM8.41033 28.6667C7.73678 28.6667 7.16667 28.4334 6.7 27.9667C6.23333 27.5 6 26.9299 6 26.2564V5.74371C6 5.07015 6.23333 4.50004 6.7 4.03337C7.16667 3.56671 7.73678 3.33337 8.41033 3.33337H19L26 10.3334V26.2564C26 26.9299 25.7667 27.5 25.3 27.9667C24.8333 28.4334 24.2632 28.6667 23.5897 28.6667H8.41033ZM18 11.3334V5.33337H8.41033C8.30767 5.33337 8.21367 5.37615 8.12833 5.46171C8.04278 5.54704 8 5.64104 8 5.74371V26.2564C8 26.359 8.04278 26.453 8.12833 26.5384C8.21367 26.6239 8.30767 26.6667 8.41033 26.6667H23.5897C23.6923 26.6667 23.7863 26.6239 23.8717 26.5384C23.9572 26.453 24 26.359 24 26.2564V11.3334H18Z" fill="#1C1B1F"/>
</g>
</svg>
