<svg width="32" height="32" viewBox="0 0 32 32" fill="none" xmlns="http://www.w3.org/2000/svg">
<mask id="mask0_48_424" style="mask-type:alpha" maskUnits="userSpaceOnUse" x="0" y="0" width="32" height="32">
<rect width="32" height="32" fill="#D9D9D9"/>
</mask>
<g mask="url(#mask0_48_424)">
<path d="M7.07708 27.3333C6.40353 27.3333 5.83341 27.1 5.36675 26.6333C4.90008 26.1666 4.66675 25.5965 4.66675 24.923V7.07696C4.66675 6.4034 4.90008 5.83329 5.36675 5.36663C5.83341 4.89996 6.40353 4.66663 7.07708 4.66663H24.9231C25.5966 4.66663 26.1667 4.89996 26.6334 5.36663C27.1001 5.83329 27.3334 6.4034 27.3334 7.07696V24.923C27.3334 25.5965 27.1001 26.1666 26.6334 26.6333C26.1667 27.1 25.5966 27.3333 24.9231 27.3333H7.07708ZM6.66675 8.66663H25.3334V7.07696C25.3334 6.97429 25.2906 6.88029 25.2051 6.79496C25.1197 6.7094 25.0257 6.66663 24.9231 6.66663H7.07708C6.97441 6.66663 6.88041 6.7094 6.79508 6.79496C6.70953 6.88029 6.66675 6.97429 6.66675 7.07696V8.66663ZM25.3334 9.66663H6.66675V24.923C6.66675 25.0256 6.70953 25.1196 6.79508 25.205C6.88041 25.2905 6.97441 25.3333 7.07708 25.3333H24.9231C25.0257 25.3333 25.1197 25.2905 25.2051 25.205C25.2906 25.1196 25.3334 25.0256 25.3334 24.923V9.66663Z" fill="#323332"/>
<rect x="8" y="8" width="3" height="3" fill="#323332"/>
<rect x="19" y="23.2427" width="6" height="1" rx="0.5" transform="rotate(-45 19 23.2427)" fill="#323332"/>
<rect x="17" y="23.2427" width="9.18721" height="1" rx="0.5" transform="rotate(-45 17 23.2427)" fill="#323332"/>
</g>
</svg>
